# xmcd
#
# Track frame offsets:
#	150
#	17064
#	35943
#	49822
#	72741
#	96782
#	119052
#	140217
#	156612
#	173635
#	191362
#
# Disc length: 2868 seconds
#
# Revision: 4
# Processed by: cddbd v1.5.2PL0 Copyright (c) Steve Scherf et al.
# Submitted via: EasyCDDAExtractor 10.2.0.1
#
DISCID=ac0b320b
DTITLE=Van Morrison - Inarticulate Speech Of The Heart
DYEAR=1983
DGENRE=Blues
TTITLE0=Higher Than The World
TTITLE1=Connswater
TTITLE2=River Of Time
TTITLE3=Celtic Swing
TTITLE4=Rave On John Donne
TTITLE5=Inarticulate Speech Of The Heart No. 1
TTITLE6=Irish Heartbeat
TTITLE7=The Street Only Knew Your Name
TTITLE8=Cry For Home
TTITLE9=Inarticulate Speech Of The Heart No. 2
TTITLE10=September Night
EXTD=
EXTT0=
EXTT1=
EXTT2=
EXTT3=
EXTT4=
EXTT5=
EXTT6=
EXTT7=
EXTT8=
EXTT9=
EXTT10=
PLAYORDER=
